<svg xmlns="http://www.w3.org/2000/svg" width="1024" height="1024" viewBox="0 0 1024 1024" version="1.1">
	<path d="M 333.507 247.989 C 333.157 248.555, 333.558 248.723, 334.448 248.382 C 336.180 247.717, 336.497 247, 335.059 247 C 334.541 247, 333.843 247.445, 333.507 247.989 M 345.750 247.706 C 346.988 247.944, 349.012 247.944, 350.250 247.706 C 351.488 247.467, 350.475 247.272, 348 247.272 C 345.525 247.272, 344.512 247.467, 345.750 247.706 M 356.813 248.683 C 357.534 248.972, 358.397 248.936, 358.729 248.604 C 359.061 248.272, 358.471 248.036, 357.417 248.079 C 356.252 248.127, 356.015 248.364, 356.813 248.683 M 330.278 250.250 C 328.779 252.188, 327.836 254, 328.326 254 C 328.570 254, 329.507 252.875, 330.408 251.500 C 332.094 248.927, 332 248.024, 330.278 250.250 M 368.750 250.662 C 369.438 250.940, 370.563 250.940, 371.250 250.662 C 371.938 250.385, 371.375 250.158, 370 250.158 C 368.625 250.158, 368.063 250.385, 368.750 250.662 M 374.813 251.683 C 375.534 251.972, 376.397 251.936, 376.729 251.604 C 377.061 251.272, 376.471 251.036, 375.417 251.079 C 374.252 251.127, 374.015 251.364, 374.813 251.683 M 378.750 252.662 C 379.438 252.940, 380.563 252.940, 381.250 252.662 C 381.938 252.385, 381.375 252.158, 380 252.158 C 378.625 252.158, 378.063 252.385, 378.750 252.662 M 387.813 254.683 C 388.534 254.972, 389.397 254.936, 389.729 254.604 C 390.061 254.272, 389.471 254.036, 388.417 254.079 C 387.252 254.127, 387.015 254.364, 387.813 254.683 M 327.232 258 C 327.232 259.925, 327.438 260.712, 327.689 259.750 C 327.941 258.788, 327.941 257.212, 327.689 256.250 C 327.438 255.287, 327.232 256.075, 327.232 258 M 398.500 257.536 C 400.150 258.292, 402.175 258.896, 403 258.879 C 403.825 258.862, 402.925 258.241, 401 257.500 C 396.434 255.742, 394.638 255.768, 398.500 257.536 M 327.300 267 C 327.300 270.025, 327.487 271.262, 327.716 269.750 C 327.945 268.238, 327.945 265.762, 327.716 264.250 C 327.487 262.738, 327.300 263.975, 327.300 267 M 415 263 C 415.825 263.533, 416.950 263.969, 417.500 263.969 C 418.050 263.969, 417.825 263.533, 417 263 C 416.175 262.467, 415.050 262.031, 414.500 262.031 C 413.950 262.031, 414.175 262.467, 415 263 M 428 268.393 C 428 268.609, 428.698 269.054, 429.552 269.382 C 430.442 269.723, 430.843 269.555, 430.493 268.989 C 429.906 268.038, 428 267.583, 428 268.393 M 437 272.449 C 437 272.724, 438.350 273.647, 440 274.500 C 441.650 275.353, 443 275.826, 443 275.551 C 443 275.276, 441.650 274.353, 440 273.500 C 438.350 272.647, 437 272.174, 437 272.449 M 327.252 279.500 C 327.263 281.700, 327.468 282.482, 327.707 281.238 C 327.946 279.994, 327.937 278.194, 327.687 277.238 C 327.437 276.282, 327.241 277.300, 327.252 279.500 M 446 277.430 C 446 277.705, 446.900 278.411, 448 279 C 449.100 279.589, 450 279.845, 450 279.570 C 450 279.295, 449.100 278.589, 448 278 C 446.900 277.411, 446 277.155, 446 277.430 M 282.952 289.253 C 281.113 290.493, 278.684 293.080, 277.554 295.003 C 275.516 298.473, 275.500 299.341, 275.500 408 C 275.500 509.148, 275.630 517.737, 277.199 520.602 C 279.635 525.049, 285.358 529.750, 289.789 530.943 C 291.888 531.508, 304.381 532.430, 317.553 532.991 C 398.603 536.444, 447.541 551.436, 495.729 587.578 C 506.540 595.686, 507.158 596, 512.296 596 C 517.416 596, 517.996 595.709, 526.567 588.843 C 555.178 565.921, 589.818 549.945, 629.152 541.528 C 655.150 535.965, 671.081 534.241, 706.743 533.132 C 729.230 532.433, 733.071 532.077, 737 530.332 C 742.029 528.099, 747.574 522.381, 748.736 518.232 C 749.156 516.729, 749.500 466.675, 749.500 407 C 749.500 300.298, 749.467 298.444, 747.500 295.105 C 743.829 288.872, 740.876 287.481, 731.666 287.648 C 724.533 287.777, 699.560 292.107, 698.220 293.446 C 697.952 293.715, 697.502 333.138, 697.220 381.052 C 696.713 467.124, 696.682 468.220, 694.604 472.277 C 691.274 478.776, 688.938 479.878, 673.944 482.027 C 647.200 485.860, 627.203 491.167, 606.400 499.953 C 565.179 517.362, 531.973 548.751, 516.959 584.500 C 515.111 588.900, 513.249 592.917, 512.822 593.427 C 512.395 593.937, 511.326 592.587, 510.447 590.427 C 500.424 565.808, 482.269 542.250, 459.796 524.703 C 430.057 501.480, 391.046 486.427, 346.500 480.986 C 336.812 479.802, 332.913 478.116, 329.605 473.677 C 327.507 470.863, 327.499 470.560, 327.234 382.024 L 326.968 293.194 319.734 291.615 C 296.350 286.513, 287.831 285.966, 282.952 289.253 M 468.500 293 C 469.495 294.100, 470.535 295, 470.810 295 C 471.085 295, 470.495 294.100, 469.500 293 C 468.505 291.900, 467.465 291, 467.190 291 C 466.915 291, 467.505 291.900, 468.500 293 M 478.500 302 C 481.209 304.750, 483.650 307, 483.925 307 C 484.200 307, 482.209 304.750, 479.500 302 C 476.791 299.250, 474.350 297, 474.075 297 C 473.800 297, 475.791 299.250, 478.500 302 M 488 312.378 C 488 312.585, 488.788 313.373, 489.750 314.128 C 491.336 315.371, 491.371 315.336, 490.128 313.750 C 488.821 312.084, 488 311.555, 488 312.378 M 491 316.378 C 491 316.585, 491.788 317.373, 492.750 318.128 C 494.336 319.371, 494.371 319.336, 493.128 317.750 C 491.821 316.084, 491 315.555, 491 316.378 M 494 320.378 C 494 320.585, 494.788 321.373, 495.750 322.128 C 497.336 323.371, 497.371 323.336, 496.128 321.750 C 494.821 320.084, 494 319.555, 494 320.378 M 507.071 342.500 C 507.071 343.050, 507.714 344.625, 508.500 346 C 509.286 347.375, 509.929 348.050, 509.929 347.500 C 509.929 346.950, 509.286 345.375, 508.500 344 C 507.714 342.625, 507.071 341.950, 507.071 342.500 M 755.121 623.101 C 743.076 625.160, 735.385 630.441, 730.765 639.825 C 727.829 645.789, 727.482 647.460, 727.148 657.211 L 726.779 668 719.824 668 C 709.214 668, 709 668.235, 709 679.880 C 709 692.129, 710.053 693.593, 718.235 692.724 C 721.131 692.416, 724.288 691.855, 725.250 691.475 C 726.900 690.825, 727 693.233, 727 733.693 C 727 765.732, 727.304 776.904, 728.200 777.800 C 728.989 778.589, 733.200 779, 740.500 779 C 747.800 779, 752.011 778.589, 752.800 777.800 C 753.696 776.904, 754 765.867, 754 734.300 L 754 692 766 692 C 781.504 692, 782 691.617, 782 679.655 C 782 668.154, 781.791 668, 766.171 668 L 754 668 754.044 663.750 C 754.095 658.767, 756.088 652.665, 758.555 649.939 C 761.596 646.579, 766.605 645.853, 774.167 647.678 C 783.560 649.945, 784 649.467, 784 637 C 784 630.409, 783.595 626.913, 782.750 626.220 C 779.339 623.424, 763.617 621.649, 755.121 623.101 M 671.450 624.407 C 664.580 627.399, 660.936 635.333, 662.966 642.875 C 666.190 654.847, 683.328 658.606, 692.566 649.367 C 700.084 641.850, 697.293 628.527, 687.329 624.364 C 683.222 622.648, 675.440 622.669, 671.450 624.407 M 113.568 629.529 C 111.509 630.554, 111.499 630.891, 111.244 703.079 C 111.026 764.562, 111.204 775.897, 112.412 777.550 C 113.780 779.422, 115.559 779.513, 156.685 779.828 C 209.020 780.228, 205 781.408, 205 765.650 C 205 749.766, 207.784 751, 171.943 751 L 142 751 142 691.691 C 142 642.616, 141.760 632.054, 140.609 630.480 C 139.381 628.801, 137.836 628.573, 127.427 628.539 C 120.942 628.517, 114.705 628.963, 113.568 629.529 M 586.680 666.967 C 579.520 669.255, 574.499 672.508, 568.558 678.708 L 564 683.465 564 676.933 C 564 673.185, 563.488 669.888, 562.800 669.200 C 562.009 668.409, 557.768 668, 550.357 668 C 539.872 668, 539.008 668.150, 537.557 670.223 C 536.196 672.164, 536 678.972, 536 724.151 C 536 769.823, 536.183 776.041, 537.571 777.429 C 538.823 778.680, 541.523 778.997, 550.821 778.985 C 557.245 778.976, 563.175 778.543, 564 778.021 C 565.282 777.210, 565.509 772.240, 565.561 743.786 C 565.614 714.742, 565.842 709.928, 567.350 706.014 C 571.033 696.452, 578.559 691.649, 590 691.559 C 596.213 691.510, 598.266 691.929, 601.961 694 C 606.879 696.756, 610.444 701.338, 611.984 706.882 C 612.561 708.960, 612.991 724.253, 612.994 742.816 C 612.998 763.169, 613.383 775.848, 614.035 777.066 C 614.973 778.819, 616.235 779, 627.500 779 C 638.765 779, 640.027 778.819, 640.965 777.066 C 642.340 774.495, 642.353 705.135, 640.979 697.891 C 638.767 686.224, 630.787 674.478, 622.051 670.029 C 611.781 664.799, 597.371 663.551, 586.680 666.967 M 254.109 667.581 C 246.184 669.713, 241.222 672.164, 234.500 677.269 C 220.317 688.041, 213 704.268, 213 724.950 C 213 742.158, 218.005 755, 229 766.007 C 250.181 787.210, 287.764 787.581, 308.324 766.791 C 311.746 763.331, 315.659 758.364, 317.020 755.753 C 320.766 748.564, 319.826 747.781, 305.566 746.200 L 293.839 744.899 288.592 750.360 C 280.878 758.389, 272.073 760.696, 261.328 757.505 C 252.107 754.766, 244.840 746.164, 242.529 735.250 L 241.841 732 279.698 732 C 325.947 732, 322.549 733.060, 321.687 718.906 C 320.639 701.694, 315.003 688.773, 304.264 678.958 C 297.800 673.051, 291.749 669.767, 283.284 667.574 C 275.769 665.626, 261.365 665.630, 254.109 667.581 M 369 667.608 C 354.646 671.462, 344.104 679.762, 340.154 690.319 C 337.608 697.122, 337.477 699.334, 339.499 701.357 C 341.077 702.934, 349.151 704.322, 357.398 704.434 C 361.984 704.496, 362.419 704.278, 364.243 701 C 368.835 692.748, 374.979 689.058, 384.185 689.022 C 396.555 688.974, 402.688 694.847, 403.229 707.256 C 403.340 709.812, 403.170 712.163, 402.852 712.481 C 402.533 712.800, 394.449 713.927, 384.886 714.986 C 358.338 717.926, 350.420 720.181, 342.637 727.013 C 333.102 735.386, 330.598 752.374, 337.031 765.045 C 339.764 770.426, 346.953 776.465, 353.580 778.944 C 370.061 785.110, 390.278 781.381, 400.750 770.243 L 405 765.722 405 771.161 C 405 774.153, 405.540 777.140, 406.200 777.800 C 406.997 778.597, 411.348 779, 419.165 779 C 429.773 779, 431.031 778.810, 431.965 777.066 C 433.346 774.484, 433.329 707.619, 431.944 699.086 C 429.328 682.960, 418.868 671.805, 402.320 667.495 C 394.910 665.565, 376.376 665.628, 369 667.608 M 501.500 667.227 C 495.163 669.486, 487.567 675.922, 482.858 683.024 C 481.265 685.426, 481.231 685.313, 481.727 679.257 C 482.118 674.497, 481.849 672.419, 480.597 670.507 C 479.002 668.074, 478.619 668, 467.548 668 C 458.513 668, 455.816 668.327, 454.571 669.571 C 453.183 670.960, 453 677.228, 453 723.416 C 453 772.788, 453.102 775.782, 454.829 777.345 C 456.308 778.684, 458.863 779, 468.206 779 C 476.227 779, 480.071 778.618, 480.789 777.750 C 481.427 776.977, 481.981 765.045, 482.239 746.500 C 482.587 721.438, 482.936 715.750, 484.356 711.944 C 488.382 701.155, 497.349 695.027, 509.139 695.010 C 519.433 694.995, 520.416 693.790, 520.838 680.679 C 521.147 671.111, 520.991 669.991, 519.088 668.088 C 517.394 666.394, 515.821 666.015, 510.750 666.079 C 507.313 666.122, 503.150 666.639, 501.500 667.227 M 666.200 669.200 C 664.619 670.781, 664.461 774.124, 666.035 777.066 C 666.973 778.819, 668.235 779, 679.500 779 C 690.765 779, 692.027 778.819, 692.965 777.066 C 693.640 775.804, 694 757.179, 694 723.500 C 694 689.821, 693.640 671.196, 692.965 669.934 C 692.028 668.183, 690.767 668, 679.665 668 C 671.459 668, 667.003 668.397, 666.200 669.200 M 795.551 670.281 C 794.145 672.428, 795.295 675.703, 815.028 725.763 C 826.563 755.024, 836 779.720, 836 780.644 C 836 781.569, 834.594 784.515, 832.876 787.193 C 828.499 794.015, 822.793 797.151, 813.675 797.747 C 808.761 798.068, 806.106 798.715, 805.250 799.799 C 804.463 800.795, 804 804.664, 804 810.237 C 804 818.304, 804.218 819.309, 806.455 821.545 C 808.711 823.802, 809.664 824, 818.273 824 C 833.959 824, 843.021 819.868, 852.198 808.532 C 858.722 800.472, 861.650 794.045, 879.314 749 C 887.834 727.275, 898.049 701.240, 902.015 691.145 C 911.400 667.255, 911.623 668, 895.077 668 C 884.071 668, 882.912 668.180, 880.627 670.250 C 878.803 671.902, 874.800 681.715, 865.571 707.150 C 858.657 726.208, 853 742.296, 853 742.900 C 853 746.052, 851.184 743.092, 848.611 735.747 C 837.531 704.123, 824.731 671.291, 822.880 669.750 C 821.138 668.300, 818.746 668, 808.912 668 C 797.662 668, 796.969 668.118, 795.551 670.281 M 259.137 690.369 C 251.928 692.978, 245.529 700.680, 243.450 709.250 L 242.783 712 267.392 712 C 295.126 712, 293.515 712.545, 290.558 704.163 C 287.107 694.383, 279.173 688.943, 268.554 689.076 C 265.224 689.118, 260.987 689.700, 259.137 690.369 M 386.083 731.596 C 379.450 732.398, 373.164 733.752, 371.083 734.826 C 363.613 738.679, 360.767 747.826, 364.919 754.635 C 369.150 761.573, 384.011 763.114, 393.434 757.592 C 400.115 753.676, 403.229 747.752, 403.802 737.867 L 404.257 730 400.878 730.107 C 399.020 730.166, 392.362 730.836, 386.083 731.596" stroke="none" fill="#2563eb" fill-rule="evenodd"/>
</svg>